# AST/ASF file generated using VICON BodyLanguage
# -----------------------------------------------
:version 1.10
:name VICON
:units
  mass 1.0
  length 0.45
  angle deg
:documentation
   .ast/.asf automatically generated from VICON data using
   VICON BodyBuilder and BodyLanguage model FoxedUp or BRILLIANT.MOD
:root
   order TX TY TZ RX RY RZ
   axis XYZ
   position 0 0 0  
   orientation 0 0 0 
:bonedata
  begin
     id 1 
     name lhipjoint
     direction 0.584852 -0.759097 0.285867 
     length 2.43633 
     axis 0 0 0  XYZ
  end
  begin
     id 2 
     name lfemur
     direction 0.34202 -0.939693 0  
     length 7.14704  
     axis 0 0 20  XYZ
    dof rx ry rz
    limits (-160.0 20.0)
           (-70.0 70.0)
           (-60.0 70.0)
  end
  begin
     id 3 
     name ltibia
     direction 0.342022 -0.939692 0   
     length 7.68483   
     axis 0 0 20   XYZ
    dof rx
    limits (-10.0 170.0)
  end
  begin
     id 4 
     name lfoot
     direction 0.0999605 -0.274639 0.956337   
     length 2.40452   
     axis -90 7.62852e-016 20   XYZ
    dof rx rz
    limits (-45.0 90.0)
           (-70.0 20.0)
  end
  begin
     id 5 
     name ltoes
     direction 1.53468e-011 -4.21881e-011 1   
     length 1.19837   
     axis -90 7.62852e-016 20   XYZ
    dof rx
    limits (-90.0 20.0)
  end
  begin
     id 6 
     name rhipjoint
     direction -0.569886 -0.769002 0.289597   
     length 2.40495  
     axis 0 0 0  XYZ 
  end
  begin
     id 7 
     name rfemur
     direction -0.34202 -0.939693 0   
     length 7.45086   
     axis 0 0 -20   XYZ
    dof rx ry rz
    limits (-160.0 20.0)
           (-70.0 70.0)
           (-70.0 60.0)
  end
  begin
     id 8 
     name rtibia
     direction -0.34202 -0.939693 0   
     length 7.76831   
     axis 0 0 -20   XYZ
    dof rx
    limits (-10.0 170.0)
 end
 begin
     id 9 
     name rfoot
     direction -0.0798572 -0.219406 0.97236   
     length 2.35911  
     axis -90 -7.62852e-016 -20   XYZ
    dof rx rz
    limits (-45.0 90.0)
           (-20.0 70.0)
  end
  begin
     id 10 
     name rtoes
     direction -1.53469e-011 -4.21728e-011 1   
     length 1.18261   
     axis -90 -7.62852e-016 -20   XYZ
    dof rx
    limits (-90.0 20.0)
  end
  begin
     id 11 
     name lowerback
     direction 0.0242088 0.999437 0.0232389   
     length 2.1561   
     axis 0 0 0   XYZ
    dof rx ry rz
    limits (-20.0 45.0)
           (-30.0 30.0)
           (-30.0 30.0)
  end
  begin
     id 12 
     name upperback
     direction -0.0356893 0.999013 -0.0264323   
     length 2.14431   
     axis 0 0 0   XYZ
    dof rx ry rz
    limits (-20.0 45.0)
           (-30.0 30.0)
           (-30.0 30.0)
  end
  begin
     id 13 
     name thorax
     direction -0.0472163 0.998194 -0.0371284   
     length 2.16169   
     axis 0 0 0   XYZ
    dof rx ry rz
    limits (-20.0 45.0)
           (-30.0 30.0)
           (-30.0 30.0)
  end
  begin
     id 14 
     name lowerneck
     direction 0.00863244 0.999921 0.00911972   
     length 1.58651   
     axis 0 0 0   XYZ
    dof rx ry rz
    limits (-20.0 45.0)
           (-30.0 30.0)
           (-30.0 30.0)
  end
  begin
     id 15 
     name upperneck
     direction 0.149523 0.979068 -0.138086   
     length 1.57486   
     axis 0 0 0   XYZ
    dof rx ry rz
    limits (-20.0 45.0)
           (-30.0 30.0)
           (-30.0 30.0)
  end
  begin
     id 16
     name head
     direction 0.0445219 0.997708 -0.0509576  
     length 1.6019  
     axis 0 0 0   XYZ
    dof rx ry rz
    limits (-20.0 45.0)
           (-30.0 30.0)
           (-30.0 30.0)
  end
  begin
     id 17 
     name lclavicle
     direction 0.911271 0.381667 -0.154644  
     length 3.80848  
     axis 0 0 0   XYZ
    dof ry rz
    limits (-20.0 10.0)
           (0.0 20.0)
  end
  begin
     id 18 
     name lhumerus
     direction 1 -4.49003e-011 2.1308e-027   
     length 5.19069   
     axis 180 -30 -90   XYZ
    dof rx ry rz
    limits (-60.0 90.0)
           (-90.0 90.0)
           (-90.0 90.0)
  end
  begin
     id 19
     name lradius
     direction 1 -4.48914e-011 4.01554e-027   
     length 3.30016   
     axis 180 -30 -90   XYZ
    dof rx
    limits (-10.0 170.0)
  end
  begin
     id 20
     name lwrist
     direction 1 -4.49003e-011 1.1934e-026   
     length 1.65008   
     axis -8.46377e-015 90 90   XYZ
    dof ry
    limits (-180.0 0.0)
 end
  begin
     id 21 
     name lhand
     direction 1 -4.49034e-011 2.38659e-026   
     length 0.707698   
     axis -1.52313e-014 90 90   XYZ
    dof rx rz
    limits (-90.0 90.0)
           (-45.0 45.0)
  end
  begin
     id 22 
     name lfingers
     direction 1 -4.48691e-011 4.77775e-026   
     length 0.570564   
     axis -3.04623e-014 90 90   XYZ
    dof rx
    limits (0.0 90.0)
  end
  begin
     id 23
     name lthumb
     direction 0.707107 -6.34832e-011 0.707107   
     length 0.819219   
     axis -90 45 -1.62303e-014   XYZ
    dof rx rz
    limits (-45.0 45.0)
           (-45.0 45.0)
  end
  begin
     id 24 
     name rclavicle
     direction -0.815579 0.573708 -0.0754329   
     length 3.54371  
     axis 0 0 0   XYZ 
    dof ry rz
    limits (-10.0 20.0)
           (-20.0 0.0)
  end
  begin
     id 25 
     name rhumerus
     direction -1 -4.48956e-011 3.05351e-028  
     length 5.23924   
     axis 180 30 90   XYZ
    dof rx ry rz
    limits (-90.0 60.0)
           (-90.0 90.0)
           (-90.0 90.0)
  end
  begin
     id 26 
     name rradius
     direction -1 -4.49013e-011 3.53849e-027   
     length 3.32953   
     axis 180 30 90   XYZ
    dof rx
    limits (-10.0 170.0)
  end
  begin
     id 27 
     name rwrist
     direction -1 -4.48901e-011 1.19374e-026   
     length 1.66477   
     axis -8.46377e-015 -90 -90   XYZ
    dof ry
    limits (-180.0 0.0)
  end
  begin
     id 28
     name rhand
     direction -1 -4.48877e-011 2.38764e-026   
     length 0.607414   
     axis -1.52313e-014 -90 -90   XYZ
    dof rx rz
    limits (-90.0 90.0)
           (-45.0 45.0)
  end
  begin
     id 29
     name rfingers
     direction -1 -4.48882e-011 4.77521e-026   
     length 0.489712   
     axis -3.04623e-014 -90 -90   XYZ
    dof rx
    limits (0.0 90.0)
  end
  begin
     id 30
     name rthumb
     direction -0.707107 -6.34974e-011 0.707107   
     length 0.703132   
     axis -90 -45 1.62303e-014   XYZ
    dof rx rz
    limits (-45.0 45.0)
           (-45.0 45.0)
  end
:hierarchy
  begin
    root lhipjoint rhipjoint lowerback
    lhipjoint lfemur
    lfemur ltibia
    ltibia lfoot
    lfoot ltoes
    rhipjoint rfemur
    rfemur rtibia
    rtibia rfoot
    rfoot rtoes
    lowerback upperback
    upperback thorax
    thorax lowerneck lclavicle rclavicle
    lowerneck upperneck
    upperneck head
    lclavicle lhumerus
    lhumerus lradius
    lradius lwrist
    lwrist lhand lthumb
    lhand lfingers
    rclavicle rhumerus
    rhumerus rradius
    rradius rwrist
    rwrist rhand rthumb
    rhand rfingers
  end

#!OML:ASF E:\VariousWalksJay\Project 1\Capture day 1\Session 1\Actor2.ASF
:FULLY-SPECIFIED
:DEGREES
321
root 23.4225 16.2091 -19.5533 13.6643 -36.0011 2.43709
lowerback 6.96423 -5.35921 6.03628
upperback 12.0552 -7.15185 -2.70889
thorax 7.86353 -3.02009 -6.17653
lowerneck 9.21367 2.72956 0.670615
upperneck -11.6729 3.88119 0.729219
head -5.02236 1.82035 -0.153554
rclavicle 1.08139e-013 -5.48646e-014
rhumerus -58.0508 17.7232 -88.1463
rradius 69.3499
rwrist 5.23183
rhand -45.1961 14.3648
rfingers 7.12502
rthumb -17.9724 -14.8248
lclavicle 1.08139e-013 -5.48646e-014
lhumerus 4.88384 -56.0413 76.6483
lradius 90.026
lwrist 39.2661
lhand -30.3983 7.78932
lfingers 7.12502
lthumb -3.7021 37.7369
rfemur -57.5009 -2.70948 25.2085
rtibia 31.9952
rfoot -7.27603 -13.051
rtoes -9.31121
lfemur -4.85034 14.8971 -28.4533
ltibia 39.7317
lfoot -23.9076 2.55318
ltoes -22.6819
322
root 23.3335 16.2244 -19.4224 13.8825 -36.4434 2.36555
lowerback 6.93459 -5.30657 5.99934
upperback 11.9463 -7.08014 -2.70375
thorax 7.77162 -2.99412 -6.14762
lowerneck 9.20782 2.79875 0.694123
upperneck -11.627 3.96773 0.650986
head -5.00501 1.86765 -0.187016
rclavicle -1.1291e-013 1.11319e-014
rhumerus -58.0739 18.0021 -88.0717
rradius 68.6205
rwrist 5.33526
rhand -45.2826 14.4392
rfingers 7.12502
rthumb -18.0556 -14.7428
lclavicle -1.1291e-013 1.11319e-014
lhumerus 3.49047 -56.2235 77.8847
lradius 90.0004
lwrist 39.0881
lhand -30.8864 7.48831
lfingers 7.12502
lthumb -4.17344 37.4272
rfemur -57.6693 -2.38071 25.2096
rtibia 32.8824
rfoot -6.7352 -12.8597
rtoes -8.65682
lfemur -4.00107 14.797 -28.4815
ltibia 38.5964
lfoot -23.1298 2.77473
ltoes -22.8485
323
root 23.2442 16.2411 -19.2942 14.1108 -36.8073 2.28171
lowerback 6.89773 -5.2694 5.99013
upperback 11.8511 -7.02962 -2.69429
thorax 7.69425 -2.97549 -6.13047
lowerneck 9.21208 2.85655 0.720864
upperneck -11.5916 4.04268 0.597018
head -4.993 1.9073 -0.21292
rclavicle 1.82882e-014 5.40694e-014
rhumerus -58.0628 18.2421 -87.9929
rradius 67.9425
rwrist 5.45685
rhand -45.3443 14.5103
rfingers 7.12502
rthumb -18.1149 -14.6662
lclavicle 1.82882e-014 5.40694e-014
lhumerus 2.28827 -56.3843 78.926
lradius 89.9597
lwrist 38.9497
lhand -31.372 7.17831
lfingers 7.12502
lthumb -4.64238 37.1074
rfemur -57.8025 -2.01629 25.1618
rtibia 33.7127
rfoot -6.27794 -12.6878
rtoes -7.87974
lfemur -3.19199 14.6504 -28.4711
ltibia 37.5053
lfoot -22.2879 2.94257
ltoes -22.9997
324
root 23.1549 16.2592 -19.1692 14.36 -37.0858 2.17301
lowerback 6.85727 -5.24984 6.02444
upperback 11.7671 -7.0026 -2.67796
thorax 7.62504 -2.9646 -6.13032
lowerneck 9.21901 2.90332 0.74955
upperneck -11.5648 4.10575 0.563833
head -4.98446 1.93951 -0.232003
rclavicle -6.20208e-014 2.06736e-014
rhumerus -58.0295 18.4362 -87.9113
rradius 67.3239
rwrist 5.58571
rhand -45.3869 14.5796
rfingers 7.12502
rthumb -18.1559 -14.5931
lclavicle -6.20208e-014 2.06736e-014
lhumerus 1.25657 -56.5182 79.7966
lradius 89.9109
lwrist 38.8349
lhand -31.821 6.8814
lfingers 7.12502
lthumb -5.07594 36.8006
rfemur -57.9026 -1.62386 25.0831
rtibia 34.4815
rfoot -5.90184 -12.557
rtoes -6.95095
lfemur -2.44142 14.4604 -28.4075
ltibia 36.4851
lfoot -21.386 3.05326
ltoes -23.1231
325
root 23.066 16.2787 -19.0474 14.635 -37.2802 2.03445
lowerback 6.82055 -5.24819 6.10771
upperback 11.6916 -6.99889 -2.65228
thorax 7.55665 -2.96153 -6.14654
lowerneck 9.22157 2.93964 0.778697
upperneck -11.5471 4.15642 0.543716
head -4.97831 1.96463 -0.246276
rclavicle 7.15625e-014 -2.38542e-014
rhumerus -57.9833 18.5849 -87.8256
rradius 66.7718
rwrist 5.70863
rhand -45.4163 14.647
rfingers 7.12502
rthumb -18.1842 -14.523
lclavicle 7.15625e-014 -2.38542e-014
lhumerus 0.371552 -56.6207 80.5271
lradius 89.8596
lwrist 38.7295
lhand -32.2192 6.60758
lfingers 7.12502
lthumb -5.46038 36.5172
rfemur -57.974 -1.21319 24.9876
rtibia 35.1901
rfoot -5.60728 -12.4829
rtoes -5.86974
lfemur -1.76526 14.2331 -28.2858
ltibia 35.5606
lfoot -20.43 3.10615
ltoes -23.2066
326
root 22.978 16.2992 -18.929 14.9337 -37.3986 1.87006
lowerback 6.8111 -5.26141 6.21593
upperback 11.6143 -7.01338 -2.60092
thorax 7.46892 -2.96767 -6.14535
lowerneck 9.21574 2.96568 0.796403
upperneck -11.5365 4.19077 0.517937
head -4.97304 1.98259 -0.259247
rclavicle 3.10104e-014 -3.65764e-014
rhumerus -57.9411 18.7058 -87.7148
rradius 66.2949
rwrist 5.81035
rhand -45.4382 14.7083
rfingers 7.12502
rthumb -18.2053 -14.4598
lclavicle 3.10104e-014 -3.65764e-014
lhumerus -0.416285 -56.6833 81.1985
lradius 89.8046
lwrist 38.6155
lhand -32.5612 6.35871
lfingers 7.12502
lthumb -5.79055 36.2596
rfemur -58.0228 -0.796387 24.8852
rtibia 35.8441
rfoot -5.39578 -12.47
rtoes -4.66112
lfemur -1.17626 13.9775 -28.1113
ltibia 34.7538
lfoot -19.4261 3.10306
ltoes -23.2393
327
root 22.8914 16.3206 -18.814 15.247 -37.4547 1.69208
lowerback 6.85516 -5.2848 6.31273
upperback 11.5244 -7.0386 -2.50628
thorax 7.3415 -2.9842 -6.0847
lowerneck 9.19985 2.98135 0.789298
upperneck -11.5321 4.20401 0.465244
head -4.96788 1.99307 -0.274954
rclavicle -9.46215e-014 9.70069e-014
rhumerus -57.9175 18.8207 -87.5528
rradius 65.8995
rwrist 5.87935
rhand -45.4566 14.7624
rfingers 7.12502
rthumb -18.2229 -14.404
lclavicle -9.46215e-014 9.70069e-014
lhumerus -1.14364 -56.6998 81.8779
lradius 89.7465
lwrist 38.4879
lhand -32.8519 6.12999
lfingers 7.12502
lthumb -6.07123 36.023
rfemur -58.0556 -0.387648 24.7801
rtibia 36.4525
rfoot -5.26866 -12.5115
rtoes -3.36898
lfemur -0.682323 13.7047 -27.8979
ltibia 34.0815
lfoot -18.3799 3.04777
ltoes -23.2113
328
root 22.8066 16.3425 -18.7023 15.562 -37.4647 1.51789
lowerback 6.98368 -5.31207 6.34682
upperback 11.4082 -7.06489 -2.34443
thorax 7.15082 -3.01264 -5.90726
lowerneck 9.17424 2.98684 0.738946
upperneck -11.5299 4.19068 0.361513
head -4.96157 1.99587 -0.297463
rclavicle 3.81667e-014 -3.65764e-014
rhumerus -57.9287 18.9585 -87.304
rradius 65.5908
rwrist 5.90929
rhand -45.4736 14.8042
rfingers 7.12502
rthumb -18.2393 -14.3606
lclavicle 3.81667e-014 -3.65764e-014
lhumerus -1.84914 -56.6627 82.6426
lradius 89.683
lwrist 38.3447
lhand -33.1001 5.91154
lfingers 7.12502
lthumb -6.31089 35.7975
rfemur -58.0791 -0.00180353 24.6725
rtibia 37.0253
rfoot -5.22493 -12.5915
rtoes -2.04335
lfemur -0.288377 13.4268 -27.665
ltibia 33.5562
lfoot -17.2954 2.94475
ltoes -23.1121
329
root 22.724 16.3646 -18.5938 15.8653 -37.4451 1.36527
lowerback 7.22884 -5.33603 6.26105
upperback 11.2504 -7.08184 -2.08779
thorax 6.87263 -3.05409 -5.54934
lowerneck 9.14023 2.98259 0.62465
upperneck -11.5226 4.14523 0.181942
head -4.95191 1.99088 -0.330655
rclavicle 1.66979e-014 9.54166e-015
rhumerus -57.9907 19.1523 -86.9288
rradius 65.3723
rwrist 5.89723
rhand -45.4905 14.832
rfingers 7.12502
rthumb -18.2556 -14.3314
lclavicle 1.66979e-014 9.54166e-015
lhumerus -2.56574 -56.5606 83.567
lradius 89.6112
lwrist 38.1872
lhand -33.3215 5.68882
lfingers 7.12502
lthumb -6.52458 35.5683
rfemur -58.0982 0.347464 24.5606
rtibia 37.5721
rfoot -5.26054 -12.6894
rtoes -0.734996
lfemur 0.0030563 13.1567 -27.4324
ltibia 33.1878
lfoot -16.1759 2.79935
ltoes -22.9326
